{
  "title": "Orange is the new black S04E06 720p WEBRip x264-TheRival",
  "uid": 14966488,
  "size": 1008243565,
  "categoryP": "video",
  "categoryS": "hd___tv_shows",
  "magnet": "?xt=urn:btih:8c009a90e3f32984f57257e29b348f0b6d17e4d0&amp;dn=Orange+is+the+new+black+S04E06+720p+WEBRip+x264-TheRival&amp;tr=udp%3A%2F%2Ftracker.leechers-paradise.org%3A6969&amp;tr=udp%3A%2F%2Fzer0day.ch%3A1337&amp;tr=udp%3A%2F%2Fopen.demonii.com%3A1337&amp;tr=udp%3A%2F%2Ftracker.coppersurfer.tk%3A6969&amp;tr=udp%3A%2F%2Fexodus.desync.com%3A6969",
  "seeders": 89,
  "leechers": 6,
  "uploader": "TheRival",
  "files": 2,
  "time": 1466187031,
  "description": "http://extraimago.com/image/arfC \nhttp://extraimago.com/image/arfY \nhttp://extraimago.com/image/arfp\r\n\r\nVideo\r\nID : 1\r\nFormat : AVC\r\nFormat/Info : Advanced Video Codec\r\nFormat profile :   \r\nFormat settings, CABAC : Yes\r\nFormat settings, ReFrames : 2 frames\r\nFormat settings, GOP : M=1, N=24\r\nCodec ID : avc1\r\nCodec ID/Info : Advanced Video Coding\r\nDuration : 58mn 48s\r\nBit rate mode : Variable\r\nBit rate : 2 154 Kbps\r\nMaximum bit rate : 3 315 Kbps\r\nWidth : 1 280 pixels\r\nHeight : 720 pixels\r\nDisplay aspect ratio : 16:9\r\nFrame rate mode : Constant\r\nFrame rate : 23.976 (24000/1001) fps\r\nColor space : YUV\r\nChroma subsampling : 4:2:0\r\nBit depth : 8 bits\r\nScan type : Progressive\r\nBits/(Pixel*Frame) : 0.097\r\nStream size : 906 MiB (94%)\r\nEncoded date : UTC 2016-06-17 15:54:20\r\nTagged date : UTC 2016-06-17 16:02:37\r\nColor primaries : BT.709\r\nTransfer characteristics : BT.709\r\nMatrix coefficients : BT.709\r\n\r\nAudio\r\nID : 2\r\nFormat : AAC\r\nFormat/Info : Advanced Audio Codec\r\nFormat profile : LC\r\nCodec ID : 40\r\nDuration : 58mn 48s\r\nBit rate mode : Variable\r\nBit rate : 128 Kbps\r\nMaximum bit rate : 132 Kbps\r\nChannel(s) : 2 channels\r\nChannel positions : Front: L R\r\nSampling rate : 48.0 KHz\r\nFrame rate : 46.875 fps (1024 spf)\r\nCompression mode : Lossy\r\nStream size : 53.8 MiB (6%)\r\nTitle : Undetermined (aac 2.0)\r\nDefault : Yes\r\nAlternate group : 1",
  "parsed": {
    "xt": "urn:btih:8c009a90e3f32984f57257e29b348f0b6d17e4d0",
    "dn": "Orange is the new black S04E06 720p WEBRip x264-TheRival",
    "tr": [
      "udp://exodus.desync.com:6969",
      "udp://open.demonii.com:1337",
      "udp://tracker.coppersurfer.tk:6969",
      "udp://tracker.leechers-paradise.org:6969",
      "udp://zer0day.ch:1337"
    ],
    "infoHash": "8c009a90e3f32984f57257e29b348f0b6d17e4d0",
    "infoHashBuffer": {
      "type": "Buffer",
      "data": [
        140,
        0,
        154,
        144,
        227,
        243,
        41,
        132,
        245,
        114,
        87,
        226,
        155,
        52,
        143,
        11,
        109,
        23,
        228,
        208
      ]
    },
    "name": "Orange is the new black S04E06 720p WEBRip x264-TheRival",
    "announce": [
      "udp://exodus.desync.com:6969",
      "udp://open.demonii.com:1337",
      "udp://tracker.coppersurfer.tk:6969",
      "udp://tracker.leechers-paradise.org:6969",
      "udp://zer0day.ch:1337"
    ],
    "urlList": []
  },
  "previous": 95,
  "peers": 95,
  "last_updated": "2016-12-25T07:19:21.105Z"
}